<mxfile host="app.diagrams.net" agent="Mozilla/5.0 (Windows NT 10.0; Win64; x64) AppleWebKit/537.36 (KHTML, like Gecko) Chrome/135.0.0.0 Safari/537.36" version="26.2.13">
  <diagram name="Page-1" id="_IHIbdHKwVVQBr4uxr1U">
    <mxGraphModel dx="3170" dy="1739" grid="1" gridSize="10" guides="1" tooltips="1" connect="1" arrows="1" fold="1" page="1" pageScale="0.5" pageWidth="850" pageHeight="1100" math="0" shadow="0">
      <root>
        <mxCell id="0" />
        <mxCell id="1" parent="0" />
        <mxCell id="GtYsG2Aw3nbuE8PqTHed-290" value="&lt;strong data-start=&quot;1782&quot; data-end=&quot;1798&quot;&gt;Course_Name&lt;/strong&gt;" style="ellipse;whiteSpace=wrap;html=1;fontSize=15;fontStyle=0" parent="1" vertex="1">
          <mxGeometry x="668" y="315" width="120" height="80" as="geometry" />
        </mxCell>
        <mxCell id="GtYsG2Aw3nbuE8PqTHed-291" value="&lt;strong data-start=&quot;1744&quot; data-end=&quot;1759&quot;&gt;Professor&lt;/strong&gt;" style="ellipse;whiteSpace=wrap;html=1;fontSize=15;fontStyle=0" parent="1" vertex="1">
          <mxGeometry x="748" y="676" width="120" height="80" as="geometry" />
        </mxCell>
        <mxCell id="GtYsG2Aw3nbuE8PqTHed-292" value="Course_Code" style="ellipse;whiteSpace=wrap;html=1;fontStyle=4;fontSize=15;" parent="1" vertex="1">
          <mxGeometry x="848" y="315" width="120" height="80" as="geometry" />
        </mxCell>
        <mxCell id="GtYsG2Aw3nbuE8PqTHed-293" value="" style="endArrow=none;html=1;rounded=0;entryX=0.5;entryY=1;entryDx=0;entryDy=0;exitX=0.25;exitY=0;exitDx=0;exitDy=0;fontSize=15;fontStyle=0" parent="1" source="I0q6RKd7OuiKcTzyVqVU-81" target="GtYsG2Aw3nbuE8PqTHed-290" edge="1">
          <mxGeometry width="50" height="50" relative="1" as="geometry">
            <mxPoint x="790.5" y="500" as="sourcePoint" />
            <mxPoint x="630.5" y="490" as="targetPoint" />
          </mxGeometry>
        </mxCell>
        <mxCell id="GtYsG2Aw3nbuE8PqTHed-294" value="" style="endArrow=none;html=1;rounded=0;exitX=0.5;exitY=1;exitDx=0;exitDy=0;entryX=0.5;entryY=0;entryDx=0;entryDy=0;fontSize=15;fontStyle=0" parent="1" source="I0q6RKd7OuiKcTzyVqVU-81" target="GtYsG2Aw3nbuE8PqTHed-291" edge="1">
          <mxGeometry width="50" height="50" relative="1" as="geometry">
            <mxPoint x="298" y="775" as="sourcePoint" />
            <mxPoint x="118" y="810" as="targetPoint" />
          </mxGeometry>
        </mxCell>
        <mxCell id="GtYsG2Aw3nbuE8PqTHed-295" value="" style="endArrow=none;html=1;rounded=0;exitX=0.75;exitY=0;exitDx=0;exitDy=0;entryX=0.5;entryY=1;entryDx=0;entryDy=0;fontSize=15;fontStyle=0" parent="1" source="I0q6RKd7OuiKcTzyVqVU-81" target="GtYsG2Aw3nbuE8PqTHed-292" edge="1">
          <mxGeometry width="50" height="50" relative="1" as="geometry">
            <mxPoint x="820.5" y="500" as="sourcePoint" />
            <mxPoint x="700.5" y="660" as="targetPoint" />
          </mxGeometry>
        </mxCell>
        <mxCell id="GtYsG2Aw3nbuE8PqTHed-298" value="&lt;span&gt;Lecture_&lt;/span&gt;&lt;div&gt;&lt;span&gt;Room&lt;/span&gt;&lt;/div&gt;" style="ellipse;whiteSpace=wrap;html=1;rounded=1;fontSize=15;fontStyle=0" parent="1" vertex="1">
          <mxGeometry x="543" y="381" width="130" height="80" as="geometry" />
        </mxCell>
        <mxCell id="GtYsG2Aw3nbuE8PqTHed-299" value="" style="endArrow=none;html=1;rounded=0;entryX=1;entryY=1;entryDx=0;entryDy=0;exitX=0;exitY=0;exitDx=0;exitDy=0;fontSize=15;fontStyle=0" parent="1" source="I0q6RKd7OuiKcTzyVqVU-81" target="GtYsG2Aw3nbuE8PqTHed-298" edge="1">
          <mxGeometry width="50" height="50" relative="1" as="geometry">
            <mxPoint x="718" y="490" as="sourcePoint" />
            <mxPoint x="650.5" y="490" as="targetPoint" />
          </mxGeometry>
        </mxCell>
        <mxCell id="GtYsG2Aw3nbuE8PqTHed-302" value="Tutorial_&lt;div&gt;Time&lt;/div&gt;" style="ellipse;whiteSpace=wrap;html=1;rounded=1;fontStyle=0;fontSize=15;" parent="1" vertex="1">
          <mxGeometry x="963" y="490" width="130" height="80" as="geometry" />
        </mxCell>
        <mxCell id="GtYsG2Aw3nbuE8PqTHed-303" value="" style="endArrow=none;html=1;rounded=0;exitX=1;exitY=0.5;exitDx=0;exitDy=0;entryX=0;entryY=0.5;entryDx=0;entryDy=0;fontSize=15;fontStyle=0" parent="1" source="I0q6RKd7OuiKcTzyVqVU-81" target="GtYsG2Aw3nbuE8PqTHed-302" edge="1">
          <mxGeometry width="50" height="50" relative="1" as="geometry">
            <mxPoint x="908" y="530" as="sourcePoint" />
            <mxPoint x="904.25" y="485" as="targetPoint" />
          </mxGeometry>
        </mxCell>
        <mxCell id="GtYsG2Aw3nbuE8PqTHed-357" value="&lt;strong data-end=&quot;953&quot; data-start=&quot;941&quot;&gt;ADMIN&lt;br&gt;&lt;/strong&gt;" style="rounded=0;whiteSpace=wrap;html=1;fontSize=17;" parent="1" vertex="1">
          <mxGeometry x="-370" y="-230" width="120" height="60" as="geometry" />
        </mxCell>
        <mxCell id="GtYsG2Aw3nbuE8PqTHed-401" value="ROOM" style="rounded=0;whiteSpace=wrap;html=1;fontStyle=1;fontSize=17;" parent="1" vertex="1">
          <mxGeometry x="-190" y="500" width="120" height="60" as="geometry" />
        </mxCell>
        <mxCell id="GtYsG2Aw3nbuE8PqTHed-404" value="&lt;strong data-start=&quot;1646&quot; data-end=&quot;1656&quot;&gt;Availability_ status&lt;/strong&gt;" style="ellipse;whiteSpace=wrap;html=1;fontSize=15;fontStyle=0" parent="1" vertex="1">
          <mxGeometry x="21" y="430" width="120" height="80" as="geometry" />
        </mxCell>
        <mxCell id="GtYsG2Aw3nbuE8PqTHed-405" value="" style="endArrow=none;html=1;rounded=0;exitX=1;exitY=0.25;exitDx=0;exitDy=0;entryX=0;entryY=0.5;entryDx=0;entryDy=0;fontSize=15;fontStyle=0" parent="1" source="GtYsG2Aw3nbuE8PqTHed-401" target="GtYsG2Aw3nbuE8PqTHed-404" edge="1">
          <mxGeometry width="50" height="50" relative="1" as="geometry">
            <mxPoint x="165" y="715" as="sourcePoint" />
            <mxPoint x="285" y="695" as="targetPoint" />
          </mxGeometry>
        </mxCell>
        <mxCell id="GtYsG2Aw3nbuE8PqTHed-406" value="&lt;strong data-start=&quot;1548&quot; data-end=&quot;1563&quot;&gt;Room_Number&lt;/strong&gt;" style="ellipse;whiteSpace=wrap;html=1;fontStyle=0;fontSize=15;" parent="1" vertex="1">
          <mxGeometry x="-570" y="490" width="120" height="80" as="geometry" />
        </mxCell>
        <mxCell id="GtYsG2Aw3nbuE8PqTHed-407" value="" style="endArrow=none;html=1;rounded=0;exitX=0.303;exitY=0.975;exitDx=0;exitDy=0;entryX=0.922;entryY=0.208;entryDx=0;entryDy=0;entryPerimeter=0;exitPerimeter=0;fontSize=15;fontStyle=0" parent="1" source="GtYsG2Aw3nbuE8PqTHed-410" target="GtYsG2Aw3nbuE8PqTHed-406" edge="1">
          <mxGeometry width="50" height="50" relative="1" as="geometry">
            <mxPoint x="-700" y="560.0000000000002" as="sourcePoint" />
            <mxPoint x="-560" y="530" as="targetPoint" />
          </mxGeometry>
        </mxCell>
        <mxCell id="GtYsG2Aw3nbuE8PqTHed-408" value="&lt;span&gt;Capacity&lt;/span&gt;" style="ellipse;whiteSpace=wrap;html=1;fontSize=15;fontStyle=0" parent="1" vertex="1">
          <mxGeometry x="-190" y="355" width="120" height="80" as="geometry" />
        </mxCell>
        <mxCell id="GtYsG2Aw3nbuE8PqTHed-409" value="" style="endArrow=none;html=1;rounded=0;entryX=0.5;entryY=1;entryDx=0;entryDy=0;exitX=0.5;exitY=0;exitDx=0;exitDy=0;fontSize=15;fontStyle=0" parent="1" source="GtYsG2Aw3nbuE8PqTHed-401" target="GtYsG2Aw3nbuE8PqTHed-408" edge="1">
          <mxGeometry width="50" height="50" relative="1" as="geometry">
            <mxPoint x="45" y="695" as="sourcePoint" />
            <mxPoint x="15" y="635" as="targetPoint" />
          </mxGeometry>
        </mxCell>
        <mxCell id="GtYsG2Aw3nbuE8PqTHed-410" value="&lt;strong data-end=&quot;1616&quot; data-start=&quot;1603&quot;&gt;Room_Code&lt;/strong&gt;" style="ellipse;whiteSpace=wrap;html=1;fontStyle=4;fontSize=15;" parent="1" vertex="1">
          <mxGeometry x="-355" y="400" width="120" height="80" as="geometry" />
        </mxCell>
        <mxCell id="GtYsG2Aw3nbuE8PqTHed-411" value="" style="endArrow=none;html=1;rounded=0;entryX=1;entryY=1;entryDx=0;entryDy=0;exitX=0;exitY=0;exitDx=0;exitDy=0;fontSize=15;fontStyle=0" parent="1" source="GtYsG2Aw3nbuE8PqTHed-401" target="GtYsG2Aw3nbuE8PqTHed-410" edge="1">
          <mxGeometry width="50" height="50" relative="1" as="geometry">
            <mxPoint x="-235" y="448" as="sourcePoint" />
            <mxPoint x="-267" y="350" as="targetPoint" />
          </mxGeometry>
        </mxCell>
        <mxCell id="GtYsG2Aw3nbuE8PqTHed-412" value="" style="endArrow=none;html=1;rounded=0;entryX=0.957;entryY=0.673;entryDx=0;entryDy=0;entryPerimeter=0;exitX=0.043;exitY=0.335;exitDx=0;exitDy=0;exitPerimeter=0;fontSize=15;fontStyle=0" parent="1" source="GtYsG2Aw3nbuE8PqTHed-410" target="GtYsG2Aw3nbuE8PqTHed-416" edge="1">
          <mxGeometry width="50" height="50" relative="1" as="geometry">
            <mxPoint x="-435" y="398" as="sourcePoint" />
            <mxPoint x="-467" y="300" as="targetPoint" />
          </mxGeometry>
        </mxCell>
        <mxCell id="GtYsG2Aw3nbuE8PqTHed-413" value="Zone" style="ellipse;whiteSpace=wrap;html=1;fontSize=15;fontStyle=0" parent="1" vertex="1">
          <mxGeometry x="-605" y="395" width="120" height="80" as="geometry" />
        </mxCell>
        <mxCell id="GtYsG2Aw3nbuE8PqTHed-414" value="&lt;strong data-start=&quot;1603&quot; data-end=&quot;1616&quot;&gt;Building&lt;/strong&gt;" style="ellipse;whiteSpace=wrap;html=1;fontSize=15;fontStyle=0" parent="1" vertex="1">
          <mxGeometry x="-455" y="250" width="120" height="80" as="geometry" />
        </mxCell>
        <mxCell id="GtYsG2Aw3nbuE8PqTHed-415" value="" style="endArrow=none;html=1;rounded=0;entryX=0.5;entryY=1;entryDx=0;entryDy=0;exitX=0.364;exitY=0.008;exitDx=0;exitDy=0;exitPerimeter=0;fontSize=15;fontStyle=0" parent="1" source="GtYsG2Aw3nbuE8PqTHed-410" target="GtYsG2Aw3nbuE8PqTHed-414" edge="1">
          <mxGeometry width="50" height="50" relative="1" as="geometry">
            <mxPoint x="-397.51999999999975" y="384.1600000000001" as="sourcePoint" />
            <mxPoint x="-434.9999999999998" y="330.00000000000045" as="targetPoint" />
          </mxGeometry>
        </mxCell>
        <mxCell id="GtYsG2Aw3nbuE8PqTHed-416" value="&lt;strong data-start=&quot;1603&quot; data-end=&quot;1616&quot;&gt;Floor&lt;/strong&gt;" style="ellipse;whiteSpace=wrap;html=1;fontSize=15;fontStyle=0" parent="1" vertex="1">
          <mxGeometry x="-580" y="305" width="120" height="80" as="geometry" />
        </mxCell>
        <mxCell id="GtYsG2Aw3nbuE8PqTHed-417" value="" style="endArrow=none;html=1;rounded=0;entryX=1;entryY=0.5;entryDx=0;entryDy=0;exitX=0.064;exitY=0.7;exitDx=0;exitDy=0;exitPerimeter=0;fontSize=15;fontStyle=0" parent="1" source="GtYsG2Aw3nbuE8PqTHed-410" target="GtYsG2Aw3nbuE8PqTHed-413" edge="1">
          <mxGeometry width="50" height="50" relative="1" as="geometry">
            <mxPoint x="-435" y="430" as="sourcePoint" />
            <mxPoint x="-525" y="407" as="targetPoint" />
          </mxGeometry>
        </mxCell>
        <mxCell id="Z2MXEbsXXXG4tPmna7cn-1" value="&lt;span&gt;Lecture_&lt;/span&gt;&lt;div&gt;&lt;span&gt;Time&lt;/span&gt;&lt;/div&gt;" style="ellipse;whiteSpace=wrap;html=1;rounded=1;fontSize=15;fontStyle=0" parent="1" vertex="1">
          <mxGeometry x="538" y="491" width="130" height="80" as="geometry" />
        </mxCell>
        <mxCell id="Z2MXEbsXXXG4tPmna7cn-2" value="" style="endArrow=none;html=1;rounded=0;entryX=1;entryY=0.5;entryDx=0;entryDy=0;exitX=0;exitY=0.5;exitDx=0;exitDy=0;fontSize=15;fontStyle=0" parent="1" source="I0q6RKd7OuiKcTzyVqVU-81" target="Z2MXEbsXXXG4tPmna7cn-1" edge="1">
          <mxGeometry width="50" height="50" relative="1" as="geometry">
            <mxPoint x="730.5" y="515" as="sourcePoint" />
            <mxPoint x="570.5" y="560" as="targetPoint" />
          </mxGeometry>
        </mxCell>
        <mxCell id="Z2MXEbsXXXG4tPmna7cn-3" value="&lt;span&gt;Tutorial_&lt;/span&gt;&lt;div&gt;&lt;span&gt;Room&lt;/span&gt;&lt;/div&gt;" style="ellipse;whiteSpace=wrap;html=1;rounded=1;fontSize=15;fontStyle=0" parent="1" vertex="1">
          <mxGeometry x="968" y="381" width="130" height="80" as="geometry" />
        </mxCell>
        <mxCell id="Z2MXEbsXXXG4tPmna7cn-4" value="" style="endArrow=none;html=1;rounded=0;entryX=0;entryY=1;entryDx=0;entryDy=0;exitX=1;exitY=0;exitDx=0;exitDy=0;fontSize=15;fontStyle=0" parent="1" source="I0q6RKd7OuiKcTzyVqVU-81" target="Z2MXEbsXXXG4tPmna7cn-3" edge="1">
          <mxGeometry width="50" height="50" relative="1" as="geometry">
            <mxPoint x="908" y="500" as="sourcePoint" />
            <mxPoint x="774.25" y="630" as="targetPoint" />
          </mxGeometry>
        </mxCell>
        <mxCell id="I0q6RKd7OuiKcTzyVqVU-5" value="" style="endArrow=none;html=1;rounded=0;entryX=0.5;entryY=1;entryDx=0;entryDy=0;exitX=1;exitY=0;exitDx=0;exitDy=0;fontSize=15;fontStyle=0" parent="1" source="GtYsG2Aw3nbuE8PqTHed-357" target="I0q6RKd7OuiKcTzyVqVU-9" edge="1">
          <mxGeometry width="50" height="50" relative="1" as="geometry">
            <mxPoint x="-250" y="-229.5" as="sourcePoint" />
            <mxPoint x="-187.52000000000044" y="-254.18000000000006" as="targetPoint" />
          </mxGeometry>
        </mxCell>
        <mxCell id="I0q6RKd7OuiKcTzyVqVU-6" value="&lt;span style=&quot;color: rgb(0, 0, 0); font-family: Helvetica; font-style: normal; font-variant-ligatures: normal; font-variant-caps: normal; letter-spacing: normal; orphans: 2; text-align: center; text-indent: 0px; text-transform: none; widows: 2; word-spacing: 0px; -webkit-text-stroke-width: 0px; white-space: normal; background-color: rgb(251, 251, 251); text-decoration-thickness: initial; text-decoration-style: initial; text-decoration-color: initial; float: none; display: inline !important;&quot;&gt;Password&lt;/span&gt;" style="ellipse;whiteSpace=wrap;html=1;fontSize=15;fontStyle=0" parent="1" vertex="1">
          <mxGeometry x="-275" y="-470" width="120" height="80" as="geometry" />
        </mxCell>
        <mxCell id="I0q6RKd7OuiKcTzyVqVU-7" value="" style="endArrow=none;html=1;rounded=0;entryX=0;entryY=0;entryDx=0;entryDy=0;exitX=0.5;exitY=1;exitDx=0;exitDy=0;fontSize=15;fontStyle=0" parent="1" source="I0q6RKd7OuiKcTzyVqVU-10" target="GtYsG2Aw3nbuE8PqTHed-357" edge="1">
          <mxGeometry width="50" height="50" relative="1" as="geometry">
            <mxPoint x="-431.3792108470068" y="-287.03505868144873" as="sourcePoint" />
            <mxPoint x="-370" y="-229.5" as="targetPoint" />
          </mxGeometry>
        </mxCell>
        <mxCell id="I0q6RKd7OuiKcTzyVqVU-8" value="" style="endArrow=none;html=1;rounded=0;exitX=0.5;exitY=1;exitDx=0;exitDy=0;entryX=0.75;entryY=0;entryDx=0;entryDy=0;fontSize=15;fontStyle=0" parent="1" source="I0q6RKd7OuiKcTzyVqVU-6" target="GtYsG2Aw3nbuE8PqTHed-357" edge="1">
          <mxGeometry width="50" height="50" relative="1" as="geometry">
            <mxPoint x="-340" y="-104.5" as="sourcePoint" />
            <mxPoint x="-310" y="-229.5" as="targetPoint" />
          </mxGeometry>
        </mxCell>
        <mxCell id="I0q6RKd7OuiKcTzyVqVU-9" value="&lt;span style=&quot;color: rgb(0, 0, 0); font-family: Helvetica; font-style: normal; font-variant-ligatures: normal; font-variant-caps: normal; letter-spacing: normal; orphans: 2; text-align: center; text-indent: 0px; text-transform: none; widows: 2; word-spacing: 0px; -webkit-text-stroke-width: 0px; white-space: normal; background-color: rgb(251, 251, 251); float: none; display: inline !important;&quot;&gt;ID&lt;/span&gt;" style="ellipse;whiteSpace=wrap;html=1;fontStyle=4;fontSize=15;" parent="1" vertex="1">
          <mxGeometry x="-205" y="-374.5" width="120" height="80" as="geometry" />
        </mxCell>
        <mxCell id="I0q6RKd7OuiKcTzyVqVU-10" value="Name" style="ellipse;whiteSpace=wrap;html=1;fontSize=15;fontStyle=0" parent="1" vertex="1">
          <mxGeometry x="-535" y="-374.5" width="120" height="80" as="geometry" />
        </mxCell>
        <mxCell id="I0q6RKd7OuiKcTzyVqVU-28" value="&lt;span style=&quot;color: rgb(0, 0, 0); font-family: Helvetica; font-style: normal; font-variant-ligatures: normal; font-variant-caps: normal; letter-spacing: normal; orphans: 2; text-align: center; text-indent: 0px; text-transform: none; widows: 2; word-spacing: 0px; -webkit-text-stroke-width: 0px; white-space: normal; background-color: rgb(251, 251, 251); text-decoration-thickness: initial; text-decoration-style: initial; text-decoration-color: initial; float: none; display: inline !important;&quot;&gt;Email&lt;/span&gt;" style="ellipse;whiteSpace=wrap;html=1;fontSize=15;fontStyle=0" parent="1" vertex="1">
          <mxGeometry x="-475" y="-470" width="120" height="80" as="geometry" />
        </mxCell>
        <mxCell id="I0q6RKd7OuiKcTzyVqVU-29" value="" style="endArrow=none;html=1;rounded=0;exitX=0.5;exitY=1;exitDx=0;exitDy=0;entryX=0.25;entryY=0;entryDx=0;entryDy=0;fontSize=15;fontStyle=0" parent="1" source="I0q6RKd7OuiKcTzyVqVU-28" target="GtYsG2Aw3nbuE8PqTHed-357" edge="1">
          <mxGeometry width="50" height="50" relative="1" as="geometry">
            <mxPoint x="-527" y="-104.5" as="sourcePoint" />
            <mxPoint x="-467" y="-230" as="targetPoint" />
          </mxGeometry>
        </mxCell>
        <mxCell id="I0q6RKd7OuiKcTzyVqVU-81" value="Course" style="rounded=0;whiteSpace=wrap;html=1;fontStyle=1;fontSize=17;" parent="1" vertex="1">
          <mxGeometry x="748" y="500" width="120" height="60" as="geometry" />
        </mxCell>
        <mxCell id="I0q6RKd7OuiKcTzyVqVU-82" value="Room_ Booking_ Request" style="rounded=0;whiteSpace=wrap;html=1;fontStyle=1;fontSize=17;" parent="1" vertex="1">
          <mxGeometry x="716" y="1320" width="120" height="60" as="geometry" />
        </mxCell>
        <mxCell id="I0q6RKd7OuiKcTzyVqVU-85" value="Reason" style="ellipse;whiteSpace=wrap;html=1;rounded=1;fontSize=15;fontStyle=0" parent="1" vertex="1">
          <mxGeometry x="549" y="1180" width="130" height="80" as="geometry" />
        </mxCell>
        <mxCell id="I0q6RKd7OuiKcTzyVqVU-86" value="Time Slot" style="ellipse;whiteSpace=wrap;html=1;rounded=1;fontSize=15;fontStyle=0" parent="1" vertex="1">
          <mxGeometry x="800" y="1130" width="130" height="80" as="geometry" />
        </mxCell>
        <mxCell id="I0q6RKd7OuiKcTzyVqVU-90" value="Duration" style="ellipse;whiteSpace=wrap;html=1;rounded=1;fontSize=15;fontStyle=0" parent="1" vertex="1">
          <mxGeometry x="549" y="1310" width="130" height="80" as="geometry" />
        </mxCell>
        <mxCell id="I0q6RKd7OuiKcTzyVqVU-93" value="Tutorial_Duration" style="ellipse;whiteSpace=wrap;html=1;rounded=1;fontStyle=0;fontSize=15;" parent="1" vertex="1">
          <mxGeometry x="968" y="596" width="130" height="80" as="geometry" />
        </mxCell>
        <mxCell id="I0q6RKd7OuiKcTzyVqVU-94" value="" style="endArrow=none;html=1;rounded=0;exitX=1;exitY=1;exitDx=0;exitDy=0;entryX=0;entryY=0;entryDx=0;entryDy=0;fontSize=15;fontStyle=0" parent="1" source="I0q6RKd7OuiKcTzyVqVU-81" target="I0q6RKd7OuiKcTzyVqVU-93" edge="1">
          <mxGeometry width="50" height="50" relative="1" as="geometry">
            <mxPoint x="908" y="560" as="sourcePoint" />
            <mxPoint x="904.25" y="575" as="targetPoint" />
          </mxGeometry>
        </mxCell>
        <mxCell id="I0q6RKd7OuiKcTzyVqVU-95" value="&lt;span&gt;Lecture_&lt;/span&gt;&lt;div&gt;&lt;span&gt;Duration&lt;/span&gt;&lt;/div&gt;" style="ellipse;whiteSpace=wrap;html=1;rounded=1;fontSize=15;fontStyle=0" parent="1" vertex="1">
          <mxGeometry x="538" y="596" width="130" height="80" as="geometry" />
        </mxCell>
        <mxCell id="I0q6RKd7OuiKcTzyVqVU-96" value="" style="endArrow=none;html=1;rounded=0;entryX=1;entryY=0;entryDx=0;entryDy=0;exitX=0;exitY=1;exitDx=0;exitDy=0;fontSize=15;fontStyle=0" parent="1" source="I0q6RKd7OuiKcTzyVqVU-81" target="I0q6RKd7OuiKcTzyVqVU-95" edge="1">
          <mxGeometry width="50" height="50" relative="1" as="geometry">
            <mxPoint x="738" y="551" as="sourcePoint" />
            <mxPoint x="575.5" y="671" as="targetPoint" />
          </mxGeometry>
        </mxCell>
        <mxCell id="I0q6RKd7OuiKcTzyVqVU-103" value="Lecture_Time_Day" style="ellipse;whiteSpace=wrap;html=1;rounded=1;fontSize=15;fontStyle=0" parent="1" vertex="1">
          <mxGeometry x="325" y="381" width="130" height="80" as="geometry" />
        </mxCell>
        <mxCell id="I0q6RKd7OuiKcTzyVqVU-104" value="" style="endArrow=none;html=1;rounded=0;entryX=1;entryY=1;entryDx=0;entryDy=0;exitX=0;exitY=0;exitDx=0;exitDy=0;fontSize=15;fontStyle=0" parent="1" source="Z2MXEbsXXXG4tPmna7cn-1" target="I0q6RKd7OuiKcTzyVqVU-103" edge="1">
          <mxGeometry width="50" height="50" relative="1" as="geometry">
            <mxPoint x="525" y="503" as="sourcePoint" />
            <mxPoint x="427.5" y="492.5" as="targetPoint" />
          </mxGeometry>
        </mxCell>
        <mxCell id="I0q6RKd7OuiKcTzyVqVU-105" value="Lecture_Time_Hour" style="ellipse;whiteSpace=wrap;html=1;rounded=1;fontSize=15;fontStyle=0" parent="1" vertex="1">
          <mxGeometry x="325" y="596" width="130" height="80" as="geometry" />
        </mxCell>
        <mxCell id="I0q6RKd7OuiKcTzyVqVU-106" value="" style="endArrow=none;html=1;rounded=0;entryX=1;entryY=0;entryDx=0;entryDy=0;exitX=0;exitY=1;exitDx=0;exitDy=0;fontSize=15;fontStyle=0" parent="1" source="Z2MXEbsXXXG4tPmna7cn-1" target="I0q6RKd7OuiKcTzyVqVU-105" edge="1">
          <mxGeometry width="50" height="50" relative="1" as="geometry">
            <mxPoint x="525" y="533" as="sourcePoint" />
            <mxPoint x="347.5" y="562.5" as="targetPoint" />
          </mxGeometry>
        </mxCell>
        <mxCell id="I0q6RKd7OuiKcTzyVqVU-109" value="Tutorial_Time_Day" style="ellipse;whiteSpace=wrap;html=1;rounded=1;fontSize=15;fontStyle=0" parent="1" vertex="1">
          <mxGeometry x="1195" y="430" width="130" height="80" as="geometry" />
        </mxCell>
        <mxCell id="I0q6RKd7OuiKcTzyVqVU-110" value="" style="endArrow=none;html=1;rounded=0;entryX=1;entryY=0;entryDx=0;entryDy=0;exitX=0;exitY=0.5;exitDx=0;exitDy=0;fontSize=15;fontStyle=0" parent="1" source="I0q6RKd7OuiKcTzyVqVU-109" target="GtYsG2Aw3nbuE8PqTHed-302" edge="1">
          <mxGeometry width="50" height="50" relative="1" as="geometry">
            <mxPoint x="1185" y="516.22" as="sourcePoint" />
            <mxPoint x="1058.9619407771252" y="465.5042712474617" as="targetPoint" />
          </mxGeometry>
        </mxCell>
        <mxCell id="I0q6RKd7OuiKcTzyVqVU-111" value="Tutorial_Time_Hour" style="ellipse;whiteSpace=wrap;html=1;rounded=1;fontSize=15;fontStyle=0" parent="1" vertex="1">
          <mxGeometry x="1195" y="560" width="130" height="80" as="geometry" />
        </mxCell>
        <mxCell id="I0q6RKd7OuiKcTzyVqVU-112" value="" style="endArrow=none;html=1;rounded=0;entryX=1;entryY=1;entryDx=0;entryDy=0;exitX=0;exitY=0.5;exitDx=0;exitDy=0;fontSize=15;fontStyle=0" parent="1" source="I0q6RKd7OuiKcTzyVqVU-111" target="GtYsG2Aw3nbuE8PqTHed-302" edge="1">
          <mxGeometry width="50" height="50" relative="1" as="geometry">
            <mxPoint x="1186" y="529" as="sourcePoint" />
            <mxPoint x="1093" y="531" as="targetPoint" />
          </mxGeometry>
        </mxCell>
        <mxCell id="I0q6RKd7OuiKcTzyVqVU-116" value="" style="endArrow=none;html=1;rounded=0;exitX=1;exitY=1;exitDx=0;exitDy=0;entryX=0;entryY=0;entryDx=0;entryDy=0;fontSize=15;fontStyle=0" parent="1" source="I0q6RKd7OuiKcTzyVqVU-85" target="I0q6RKd7OuiKcTzyVqVU-82" edge="1">
          <mxGeometry width="50" height="50" relative="1" as="geometry">
            <mxPoint x="126" y="1042.5" as="sourcePoint" />
            <mxPoint x="126" y="1152.5" as="targetPoint" />
          </mxGeometry>
        </mxCell>
        <mxCell id="I0q6RKd7OuiKcTzyVqVU-117" value="" style="endArrow=none;html=1;rounded=0;exitX=0;exitY=0.5;exitDx=0;exitDy=0;entryX=1;entryY=0.5;entryDx=0;entryDy=0;fontSize=15;fontStyle=0" parent="1" source="I0q6RKd7OuiKcTzyVqVU-82" target="I0q6RKd7OuiKcTzyVqVU-90" edge="1">
          <mxGeometry width="50" height="50" relative="1" as="geometry">
            <mxPoint x="240.38" y="1152.5" as="sourcePoint" />
            <mxPoint x="240.38" y="1242.5" as="targetPoint" />
          </mxGeometry>
        </mxCell>
        <mxCell id="I0q6RKd7OuiKcTzyVqVU-118" value="" style="endArrow=none;html=1;rounded=0;entryX=0.5;entryY=1;entryDx=0;entryDy=0;fontSize=15;fontStyle=0;exitX=1;exitY=0;exitDx=0;exitDy=0;" parent="1" source="I0q6RKd7OuiKcTzyVqVU-82" target="I0q6RKd7OuiKcTzyVqVU-86" edge="1">
          <mxGeometry width="50" height="50" relative="1" as="geometry">
            <mxPoint x="830" y="1350" as="sourcePoint" />
            <mxPoint x="376" y="1122.5" as="targetPoint" />
          </mxGeometry>
        </mxCell>
        <mxCell id="I0q6RKd7OuiKcTzyVqVU-121" value="Day" style="ellipse;whiteSpace=wrap;html=1;rounded=1;fontSize=15;fontStyle=0" parent="1" vertex="1">
          <mxGeometry x="800" y="980" width="130" height="80" as="geometry" />
        </mxCell>
        <mxCell id="I0q6RKd7OuiKcTzyVqVU-122" value="" style="endArrow=none;html=1;rounded=0;entryX=0.5;entryY=0;entryDx=0;entryDy=0;exitX=0.5;exitY=1;exitDx=0;exitDy=0;fontSize=15;fontStyle=0" parent="1" source="I0q6RKd7OuiKcTzyVqVU-121" target="I0q6RKd7OuiKcTzyVqVU-86" edge="1">
          <mxGeometry width="50" height="50" relative="1" as="geometry">
            <mxPoint x="602" y="1110.2200000000003" as="sourcePoint" />
            <mxPoint x="491" y="1095.5" as="targetPoint" />
          </mxGeometry>
        </mxCell>
        <mxCell id="I0q6RKd7OuiKcTzyVqVU-123" value="Hour" style="ellipse;whiteSpace=wrap;html=1;rounded=1;fontSize=15;fontStyle=0" parent="1" vertex="1">
          <mxGeometry x="950" y="1010" width="130" height="80" as="geometry" />
        </mxCell>
        <mxCell id="I0q6RKd7OuiKcTzyVqVU-124" value="" style="endArrow=none;html=1;rounded=0;entryX=1;entryY=0;entryDx=0;entryDy=0;exitX=0;exitY=1;exitDx=0;exitDy=0;fontSize=15;fontStyle=0" parent="1" source="I0q6RKd7OuiKcTzyVqVU-123" target="I0q6RKd7OuiKcTzyVqVU-86" edge="1">
          <mxGeometry width="50" height="50" relative="1" as="geometry">
            <mxPoint x="603" y="1123" as="sourcePoint" />
            <mxPoint x="491" y="1152.5" as="targetPoint" />
          </mxGeometry>
        </mxCell>
        <mxCell id="I0q6RKd7OuiKcTzyVqVU-125" value="Report" style="rounded=0;whiteSpace=wrap;html=1;fontStyle=1;fontSize=17;" parent="1" vertex="1">
          <mxGeometry x="-364.5" y="1295" width="120" height="60" as="geometry" />
        </mxCell>
        <mxCell id="I0q6RKd7OuiKcTzyVqVU-127" value="Complaints" style="ellipse;whiteSpace=wrap;html=1;rounded=1;fontSize=15;fontStyle=0" parent="1" vertex="1">
          <mxGeometry x="-590" y="1140" width="130" height="80" as="geometry" />
        </mxCell>
        <mxCell id="I0q6RKd7OuiKcTzyVqVU-129" value="" style="endArrow=none;html=1;rounded=0;exitX=1;exitY=1;exitDx=0;exitDy=0;entryX=0;entryY=0;entryDx=0;entryDy=0;fontSize=15;fontStyle=0" parent="1" source="I0q6RKd7OuiKcTzyVqVU-127" edge="1" target="I0q6RKd7OuiKcTzyVqVU-125">
          <mxGeometry width="50" height="50" relative="1" as="geometry">
            <mxPoint x="-419.5" y="1245" as="sourcePoint" />
            <mxPoint x="-364.5" y="1325" as="targetPoint" />
          </mxGeometry>
        </mxCell>
        <mxCell id="I0q6RKd7OuiKcTzyVqVU-136" value="Room_ID" style="ellipse;whiteSpace=wrap;html=1;rounded=1;fontSize=15;fontStyle=0" parent="1" vertex="1">
          <mxGeometry x="-410" y="1120" width="130" height="80" as="geometry" />
        </mxCell>
        <mxCell id="I0q6RKd7OuiKcTzyVqVU-137" value="" style="endArrow=none;html=1;rounded=0;exitX=0.75;exitY=0;exitDx=0;exitDy=0;entryX=0.5;entryY=1;entryDx=0;entryDy=0;fontSize=15;fontStyle=0" parent="1" source="I0q6RKd7OuiKcTzyVqVU-125" target="I0q6RKd7OuiKcTzyVqVU-136" edge="1">
          <mxGeometry width="50" height="50" relative="1" as="geometry">
            <mxPoint x="-244.49999999998863" y="1324.4400000000005" as="sourcePoint" />
            <mxPoint x="-157.5" y="1324.44" as="targetPoint" />
          </mxGeometry>
        </mxCell>
        <mxCell id="I0q6RKd7OuiKcTzyVqVU-145" value="Cleaning Supp. Request" style="rounded=0;whiteSpace=wrap;html=1;fontStyle=1;fontSize=17;" parent="1" vertex="1">
          <mxGeometry x="-178" y="1180" width="120" height="60" as="geometry" />
        </mxCell>
        <mxCell id="I0q6RKd7OuiKcTzyVqVU-146" value="Supplies" style="ellipse;whiteSpace=wrap;html=1;rounded=1;fontSize=15;fontStyle=0" parent="1" vertex="1">
          <mxGeometry x="-410" y="970" width="130" height="80" as="geometry" />
        </mxCell>
        <mxCell id="I0q6RKd7OuiKcTzyVqVU-147" value="" style="endArrow=none;html=1;rounded=0;exitX=1;exitY=1;exitDx=0;exitDy=0;entryX=0;entryY=0;entryDx=0;entryDy=0;fontSize=15;fontStyle=0" parent="1" source="I0q6RKd7OuiKcTzyVqVU-146" edge="1" target="I0q6RKd7OuiKcTzyVqVU-145">
          <mxGeometry width="50" height="50" relative="1" as="geometry">
            <mxPoint x="-233" y="1130" as="sourcePoint" />
            <mxPoint x="-178" y="1210" as="targetPoint" />
          </mxGeometry>
        </mxCell>
        <mxCell id="I0q6RKd7OuiKcTzyVqVU-152" value="Expected Delivery&amp;nbsp;&lt;div&gt;Time&lt;/div&gt;" style="ellipse;whiteSpace=wrap;html=1;rounded=1;fontSize=15;fontStyle=0" parent="1" vertex="1">
          <mxGeometry x="-180" y="980" width="130" height="80" as="geometry" />
        </mxCell>
        <mxCell id="I0q6RKd7OuiKcTzyVqVU-153" value="" style="endArrow=none;html=1;rounded=0;exitX=0.5;exitY=0;exitDx=0;exitDy=0;entryX=0.5;entryY=1;entryDx=0;entryDy=0;fontSize=15;fontStyle=0" parent="1" source="I0q6RKd7OuiKcTzyVqVU-145" target="I0q6RKd7OuiKcTzyVqVU-152" edge="1">
          <mxGeometry width="50" height="50" relative="1" as="geometry">
            <mxPoint x="-57.99999999998863" y="1209.4400000000005" as="sourcePoint" />
            <mxPoint x="29" y="1209.44" as="targetPoint" />
          </mxGeometry>
        </mxCell>
        <mxCell id="I0q6RKd7OuiKcTzyVqVU-166" value="Cleaning Request" style="rounded=0;whiteSpace=wrap;html=1;fontStyle=1;fontSize=17;" parent="1" vertex="1">
          <mxGeometry x="-540" y="1380" width="120" height="60" as="geometry" />
        </mxCell>
        <mxCell id="I0q6RKd7OuiKcTzyVqVU-167" value="Room_ID" style="ellipse;whiteSpace=wrap;html=1;rounded=1;fontSize=15;fontStyle=0" parent="1" vertex="1">
          <mxGeometry x="-750" y="1370" width="130" height="80" as="geometry" />
        </mxCell>
        <mxCell id="I0q6RKd7OuiKcTzyVqVU-168" value="" style="endArrow=none;html=1;rounded=0;exitX=1;exitY=0.5;exitDx=0;exitDy=0;entryX=0;entryY=0.5;entryDx=0;entryDy=0;fontSize=15;fontStyle=0" parent="1" source="I0q6RKd7OuiKcTzyVqVU-167" edge="1" target="I0q6RKd7OuiKcTzyVqVU-166">
          <mxGeometry width="50" height="50" relative="1" as="geometry">
            <mxPoint x="-586" y="1480" as="sourcePoint" />
            <mxPoint x="-531" y="1560" as="targetPoint" />
          </mxGeometry>
        </mxCell>
        <mxCell id="I0q6RKd7OuiKcTzyVqVU-239" value="&lt;strong data-start=&quot;1646&quot; data-end=&quot;1656&quot;&gt;Daily_Cleaning _status&lt;/strong&gt;" style="ellipse;whiteSpace=wrap;html=1;fontSize=15;fontStyle=0" parent="1" vertex="1">
          <mxGeometry x="21" y="550" width="120" height="80" as="geometry" />
        </mxCell>
        <mxCell id="I0q6RKd7OuiKcTzyVqVU-240" value="" style="endArrow=none;html=1;rounded=0;exitX=1;exitY=0.75;exitDx=0;exitDy=0;entryX=0;entryY=0.5;entryDx=0;entryDy=0;fontSize=15;fontStyle=0" parent="1" source="GtYsG2Aw3nbuE8PqTHed-401" target="I0q6RKd7OuiKcTzyVqVU-239" edge="1">
          <mxGeometry width="50" height="50" relative="1" as="geometry">
            <mxPoint x="-97" y="580" as="sourcePoint" />
            <mxPoint x="294" y="855" as="targetPoint" />
          </mxGeometry>
        </mxCell>
        <mxCell id="I0q6RKd7OuiKcTzyVqVU-241" value="Additional Quota Request" style="rounded=0;whiteSpace=wrap;html=1;fontStyle=1;fontSize=17;" parent="1" vertex="1">
          <mxGeometry x="6" y="1060" width="120" height="60" as="geometry" />
        </mxCell>
        <mxCell id="I0q6RKd7OuiKcTzyVqVU-242" value="Number_ of_Extra_Hours" style="ellipse;whiteSpace=wrap;html=1;rounded=1;fontSize=15;fontStyle=0" parent="1" vertex="1">
          <mxGeometry x="-110" y="870" width="130" height="80" as="geometry" />
        </mxCell>
        <mxCell id="I0q6RKd7OuiKcTzyVqVU-243" value="" style="endArrow=none;html=1;rounded=0;exitX=0.5;exitY=1;exitDx=0;exitDy=0;entryX=0.25;entryY=0;entryDx=0;entryDy=0;fontSize=15;fontStyle=0" parent="1" source="I0q6RKd7OuiKcTzyVqVU-242" edge="1" target="I0q6RKd7OuiKcTzyVqVU-241">
          <mxGeometry width="50" height="50" relative="1" as="geometry">
            <mxPoint x="-198" y="990" as="sourcePoint" />
            <mxPoint x="-143" y="1070" as="targetPoint" />
          </mxGeometry>
        </mxCell>
        <mxCell id="I0q6RKd7OuiKcTzyVqVU-262" value="Reason" style="ellipse;whiteSpace=wrap;html=1;rounded=1;fontSize=15;fontStyle=0" parent="1" vertex="1">
          <mxGeometry x="106" y="870" width="130" height="80" as="geometry" />
        </mxCell>
        <mxCell id="I0q6RKd7OuiKcTzyVqVU-263" value="" style="endArrow=none;html=1;rounded=0;exitX=0.5;exitY=1;exitDx=0;exitDy=0;entryX=0.75;entryY=0;entryDx=0;entryDy=0;fontSize=15;fontStyle=0" parent="1" source="I0q6RKd7OuiKcTzyVqVU-262" edge="1" target="I0q6RKd7OuiKcTzyVqVU-241">
          <mxGeometry width="50" height="50" relative="1" as="geometry">
            <mxPoint x="-197" y="990" as="sourcePoint" />
            <mxPoint x="-142" y="1040" as="targetPoint" />
          </mxGeometry>
        </mxCell>
        <mxCell id="I0q6RKd7OuiKcTzyVqVU-264" value="Room Change Request" style="rounded=0;whiteSpace=wrap;html=1;fontStyle=1;fontSize=17;" parent="1" vertex="1">
          <mxGeometry x="425" y="1080" width="120" height="60" as="geometry" />
        </mxCell>
        <mxCell id="I0q6RKd7OuiKcTzyVqVU-265" value="Course_ID" style="ellipse;whiteSpace=wrap;html=1;rounded=1;fontSize=15;fontStyle=0" parent="1" vertex="1">
          <mxGeometry x="285" y="920" width="130" height="80" as="geometry" />
        </mxCell>
        <mxCell id="I0q6RKd7OuiKcTzyVqVU-266" value="" style="endArrow=none;html=1;rounded=0;exitX=0.5;exitY=1;exitDx=0;exitDy=0;entryX=0;entryY=0;entryDx=0;entryDy=0;fontSize=15;fontStyle=0" parent="1" source="I0q6RKd7OuiKcTzyVqVU-265" target="I0q6RKd7OuiKcTzyVqVU-264" edge="1">
          <mxGeometry width="50" height="50" relative="1" as="geometry">
            <mxPoint x="299" y="839" as="sourcePoint" />
            <mxPoint x="354" y="919" as="targetPoint" />
          </mxGeometry>
        </mxCell>
        <mxCell id="I0q6RKd7OuiKcTzyVqVU-289" value="Reason" style="ellipse;whiteSpace=wrap;html=1;rounded=1;fontSize=15;fontStyle=0" parent="1" vertex="1">
          <mxGeometry x="420" y="860" width="130" height="80" as="geometry" />
        </mxCell>
        <mxCell id="I0q6RKd7OuiKcTzyVqVU-290" value="" style="endArrow=none;html=1;rounded=0;exitX=0.5;exitY=1;exitDx=0;exitDy=0;entryX=0.5;entryY=0;entryDx=0;entryDy=0;fontSize=15;fontStyle=0" parent="1" source="I0q6RKd7OuiKcTzyVqVU-289" target="I0q6RKd7OuiKcTzyVqVU-264" edge="1">
          <mxGeometry width="50" height="50" relative="1" as="geometry">
            <mxPoint x="299" y="839" as="sourcePoint" />
            <mxPoint x="354" y="889" as="targetPoint" />
          </mxGeometry>
        </mxCell>
        <mxCell id="I0q6RKd7OuiKcTzyVqVU-291" value="Lecture/Tutorial&lt;br&gt;(Lecture=1&lt;br&gt;Tutorial=2&lt;span style=&quot;background-color: transparent; color: light-dark(rgb(0, 0, 0), rgb(255, 255, 255));&quot;&gt;)&lt;/span&gt;" style="ellipse;whiteSpace=wrap;html=1;rounded=1;fontSize=15;fontStyle=0" parent="1" vertex="1">
          <mxGeometry x="206" y="1070" width="130" height="80" as="geometry" />
        </mxCell>
        <mxCell id="I0q6RKd7OuiKcTzyVqVU-292" value="" style="endArrow=none;html=1;rounded=0;exitX=1;exitY=0.5;exitDx=0;exitDy=0;entryX=0;entryY=0.5;entryDx=0;entryDy=0;fontSize=15;fontStyle=0" parent="1" source="I0q6RKd7OuiKcTzyVqVU-291" target="I0q6RKd7OuiKcTzyVqVU-264" edge="1">
          <mxGeometry width="50" height="50" relative="1" as="geometry">
            <mxPoint x="314" y="969" as="sourcePoint" />
            <mxPoint x="369" y="1049" as="targetPoint" />
          </mxGeometry>
        </mxCell>
        <mxCell id="m0SmX-ahkxY4285N-84o-1" value="Room_ID" style="ellipse;whiteSpace=wrap;html=1;rounded=1;fontSize=15;fontStyle=0" parent="1" vertex="1">
          <mxGeometry x="655" y="1090" width="130" height="80" as="geometry" />
        </mxCell>
        <mxCell id="m0SmX-ahkxY4285N-84o-2" value="" style="endArrow=none;html=1;rounded=0;exitX=0.5;exitY=0;exitDx=0;exitDy=0;entryX=0.5;entryY=1;entryDx=0;entryDy=0;fontSize=15;fontStyle=0" parent="1" source="I0q6RKd7OuiKcTzyVqVU-82" target="m0SmX-ahkxY4285N-84o-1" edge="1">
          <mxGeometry width="50" height="50" relative="1" as="geometry">
            <mxPoint x="375.25" y="1087.5" as="sourcePoint" />
            <mxPoint x="460.75" y="1010" as="targetPoint" />
          </mxGeometry>
        </mxCell>
        <mxCell id="m0SmX-ahkxY4285N-84o-17" value="New Room ID" style="ellipse;whiteSpace=wrap;html=1;rounded=1;fontSize=15;fontStyle=0" parent="1" vertex="1">
          <mxGeometry x="566" y="920" width="130" height="80" as="geometry" />
        </mxCell>
        <mxCell id="m0SmX-ahkxY4285N-84o-18" value="" style="endArrow=none;html=1;rounded=0;exitX=1;exitY=0;exitDx=0;exitDy=0;entryX=0;entryY=1;entryDx=0;entryDy=0;fontSize=15;fontStyle=0" parent="1" source="I0q6RKd7OuiKcTzyVqVU-264" target="m0SmX-ahkxY4285N-84o-17" edge="1">
          <mxGeometry width="50" height="50" relative="1" as="geometry">
            <mxPoint x="472" y="957.75" as="sourcePoint" />
            <mxPoint x="561" y="1029.69" as="targetPoint" />
          </mxGeometry>
        </mxCell>
        <mxCell id="rwNBKkzbjSN3YOQV43_N-11" value="" style="edgeStyle=orthogonalEdgeStyle;rounded=0;orthogonalLoop=1;jettySize=auto;html=1;endArrow=none;startFill=0;" edge="1" parent="1" source="rwNBKkzbjSN3YOQV43_N-1" target="rwNBKkzbjSN3YOQV43_N-10">
          <mxGeometry relative="1" as="geometry" />
        </mxCell>
        <mxCell id="rwNBKkzbjSN3YOQV43_N-1" value="&lt;strong data-end=&quot;1331&quot; data-start=&quot;1315&quot;&gt;User&lt;/strong&gt;" style="rounded=0;whiteSpace=wrap;html=1;fontSize=17;" vertex="1" parent="1">
          <mxGeometry x="332" y="-270" width="120" height="60" as="geometry" />
        </mxCell>
        <mxCell id="rwNBKkzbjSN3YOQV43_N-2" value="" style="endArrow=none;html=1;rounded=0;entryX=0.5;entryY=1;entryDx=0;entryDy=0;exitX=1;exitY=0;exitDx=0;exitDy=0;fontSize=15;fontStyle=0" edge="1" parent="1" target="rwNBKkzbjSN3YOQV43_N-4" source="rwNBKkzbjSN3YOQV43_N-1">
          <mxGeometry width="50" height="50" relative="1" as="geometry">
            <mxPoint x="453" y="-270" as="sourcePoint" />
            <mxPoint x="513.4799999999996" y="-294.68000000000006" as="targetPoint" />
          </mxGeometry>
        </mxCell>
        <mxCell id="rwNBKkzbjSN3YOQV43_N-3" value="" style="endArrow=none;html=1;rounded=0;entryX=0;entryY=0;entryDx=0;entryDy=0;exitX=0.5;exitY=1;exitDx=0;exitDy=0;fontSize=15;fontStyle=0" edge="1" parent="1" source="rwNBKkzbjSN3YOQV43_N-5" target="rwNBKkzbjSN3YOQV43_N-1">
          <mxGeometry width="50" height="50" relative="1" as="geometry">
            <mxPoint x="269.620789152993" y="-327.53505868144873" as="sourcePoint" />
            <mxPoint x="333" y="-270" as="targetPoint" />
          </mxGeometry>
        </mxCell>
        <mxCell id="rwNBKkzbjSN3YOQV43_N-4" value="&lt;span style=&quot;color: rgb(0, 0, 0); font-family: Helvetica; font-style: normal; font-variant-ligatures: normal; font-variant-caps: normal; letter-spacing: normal; orphans: 2; text-align: center; text-indent: 0px; text-transform: none; widows: 2; word-spacing: 0px; -webkit-text-stroke-width: 0px; white-space: normal; background-color: rgb(251, 251, 251); float: none; display: inline !important;&quot;&gt;ID&lt;/span&gt;" style="ellipse;whiteSpace=wrap;html=1;fontStyle=4;fontSize=15;" vertex="1" parent="1">
          <mxGeometry x="506" y="-415" width="120" height="80" as="geometry" />
        </mxCell>
        <mxCell id="rwNBKkzbjSN3YOQV43_N-5" value="Name" style="ellipse;whiteSpace=wrap;html=1;fontSize=15;fontStyle=0" vertex="1" parent="1">
          <mxGeometry x="166" y="-415" width="120" height="80" as="geometry" />
        </mxCell>
        <mxCell id="rwNBKkzbjSN3YOQV43_N-6" value="&lt;span style=&quot;color: rgb(0, 0, 0); font-family: Helvetica; font-style: normal; font-variant-ligatures: normal; font-variant-caps: normal; letter-spacing: normal; orphans: 2; text-align: center; text-indent: 0px; text-transform: none; widows: 2; word-spacing: 0px; -webkit-text-stroke-width: 0px; white-space: normal; background-color: rgb(251, 251, 251); text-decoration-thickness: initial; text-decoration-style: initial; text-decoration-color: initial; float: none; display: inline !important;&quot;&gt;Password&lt;/span&gt;" style="ellipse;whiteSpace=wrap;html=1;fontSize=15;fontStyle=0" vertex="1" parent="1">
          <mxGeometry x="424" y="-510" width="120" height="80" as="geometry" />
        </mxCell>
        <mxCell id="rwNBKkzbjSN3YOQV43_N-7" value="" style="endArrow=none;html=1;rounded=0;exitX=0.5;exitY=1;exitDx=0;exitDy=0;entryX=0.75;entryY=0;entryDx=0;entryDy=0;fontSize=15;fontStyle=0" edge="1" parent="1" source="rwNBKkzbjSN3YOQV43_N-6" target="rwNBKkzbjSN3YOQV43_N-1">
          <mxGeometry width="50" height="50" relative="1" as="geometry">
            <mxPoint x="359" y="-144.5" as="sourcePoint" />
            <mxPoint x="423" y="-270" as="targetPoint" />
          </mxGeometry>
        </mxCell>
        <mxCell id="rwNBKkzbjSN3YOQV43_N-8" value="&lt;span style=&quot;color: rgb(0, 0, 0); font-family: Helvetica; font-style: normal; font-variant-ligatures: normal; font-variant-caps: normal; letter-spacing: normal; orphans: 2; text-align: center; text-indent: 0px; text-transform: none; widows: 2; word-spacing: 0px; -webkit-text-stroke-width: 0px; white-space: normal; background-color: rgb(251, 251, 251); text-decoration-thickness: initial; text-decoration-style: initial; text-decoration-color: initial; float: none; display: inline !important;&quot;&gt;Email&lt;/span&gt;" style="ellipse;whiteSpace=wrap;html=1;fontSize=15;fontStyle=0" vertex="1" parent="1">
          <mxGeometry x="224" y="-510" width="120" height="80" as="geometry" />
        </mxCell>
        <mxCell id="rwNBKkzbjSN3YOQV43_N-9" value="" style="endArrow=none;html=1;rounded=0;exitX=0.5;exitY=1;exitDx=0;exitDy=0;entryX=0.25;entryY=0;entryDx=0;entryDy=0;fontSize=15;fontStyle=0" edge="1" parent="1" source="rwNBKkzbjSN3YOQV43_N-8" target="rwNBKkzbjSN3YOQV43_N-1">
          <mxGeometry width="50" height="50" relative="1" as="geometry">
            <mxPoint x="172" y="-144.5" as="sourcePoint" />
            <mxPoint x="363" y="-270" as="targetPoint" />
          </mxGeometry>
        </mxCell>
        <mxCell id="rwNBKkzbjSN3YOQV43_N-14" value="" style="edgeStyle=orthogonalEdgeStyle;rounded=0;orthogonalLoop=1;jettySize=auto;html=1;endArrow=none;endFill=0;startArrow=halfCircle;startFill=0;entryX=0.5;entryY=0;entryDx=0;entryDy=0;" edge="1" parent="1" target="rwNBKkzbjSN3YOQV43_N-13">
          <mxGeometry relative="1" as="geometry">
            <mxPoint x="236" y="-120" as="sourcePoint" />
            <mxPoint x="86" y="-81" as="targetPoint" />
            <Array as="points">
              <mxPoint x="226" y="-120" />
              <mxPoint x="86" y="-120" />
            </Array>
          </mxGeometry>
        </mxCell>
        <mxCell id="rwNBKkzbjSN3YOQV43_N-10" value="D" style="ellipse;whiteSpace=wrap;html=1;fontSize=17;rounded=0;" vertex="1" parent="1">
          <mxGeometry x="370" y="-140" width="44" height="40" as="geometry" />
        </mxCell>
        <mxCell id="rwNBKkzbjSN3YOQV43_N-13" value="Student" style="whiteSpace=wrap;html=1;fontSize=17;rounded=0;" vertex="1" parent="1">
          <mxGeometry x="-140" y="-80" width="120" height="60" as="geometry" />
        </mxCell>
        <mxCell id="rwNBKkzbjSN3YOQV43_N-16" value="" style="endArrow=none;html=1;rounded=0;exitX=0.5;exitY=0;exitDx=0;exitDy=0;entryX=0.5;entryY=1;entryDx=0;entryDy=0;fontSize=15;fontStyle=0" edge="1" parent="1" source="rwNBKkzbjSN3YOQV43_N-17" target="rwNBKkzbjSN3YOQV43_N-13">
          <mxGeometry width="50" height="50" relative="1" as="geometry">
            <mxPoint x="111.39999999999964" y="-11.909999999999968" as="sourcePoint" />
            <mxPoint x="76" y="177.5" as="targetPoint" />
          </mxGeometry>
        </mxCell>
        <mxCell id="rwNBKkzbjSN3YOQV43_N-17" value="Quota" style="ellipse;whiteSpace=wrap;html=1;fontSize=15;fontStyle=0" vertex="1" parent="1">
          <mxGeometry x="-140" y="35" width="120" height="80" as="geometry" />
        </mxCell>
        <mxCell id="rwNBKkzbjSN3YOQV43_N-18" value="" style="edgeStyle=orthogonalEdgeStyle;rounded=0;orthogonalLoop=1;jettySize=auto;html=1;endArrow=none;endFill=0;startArrow=halfCircle;startFill=0;entryX=0.5;entryY=0;entryDx=0;entryDy=0;" edge="1" parent="1" target="rwNBKkzbjSN3YOQV43_N-20">
          <mxGeometry relative="1" as="geometry">
            <mxPoint x="336" y="-40" as="sourcePoint" />
            <mxPoint x="186" as="targetPoint" />
            <Array as="points">
              <mxPoint x="96" y="-40" />
            </Array>
          </mxGeometry>
        </mxCell>
        <mxCell id="rwNBKkzbjSN3YOQV43_N-20" value="Professor" style="whiteSpace=wrap;html=1;fontSize=17;rounded=0;" vertex="1" parent="1">
          <mxGeometry x="36" y="-10" width="120" height="60" as="geometry" />
        </mxCell>
        <mxCell id="rwNBKkzbjSN3YOQV43_N-21" value="Office Room" style="ellipse;whiteSpace=wrap;html=1;fontSize=15;fontStyle=0" vertex="1" parent="1">
          <mxGeometry x="36" y="105" width="120" height="80" as="geometry" />
        </mxCell>
        <mxCell id="rwNBKkzbjSN3YOQV43_N-22" value="" style="endArrow=none;html=1;rounded=0;exitX=0.5;exitY=0;exitDx=0;exitDy=0;entryX=0.5;entryY=1;entryDx=0;entryDy=0;fontSize=15;fontStyle=0" edge="1" parent="1" source="rwNBKkzbjSN3YOQV43_N-21" target="rwNBKkzbjSN3YOQV43_N-20">
          <mxGeometry width="50" height="50" relative="1" as="geometry">
            <mxPoint x="95.69000000000005" y="105" as="sourcePoint" />
            <mxPoint x="95.69000000000005" y="50" as="targetPoint" />
          </mxGeometry>
        </mxCell>
        <mxCell id="rwNBKkzbjSN3YOQV43_N-23" value="" style="edgeStyle=orthogonalEdgeStyle;rounded=0;orthogonalLoop=1;jettySize=auto;html=1;endArrow=none;endFill=0;startArrow=halfCircle;startFill=0;entryX=0.5;entryY=0;entryDx=0;entryDy=0;" edge="1" parent="1" target="rwNBKkzbjSN3YOQV43_N-25">
          <mxGeometry relative="1" as="geometry">
            <mxPoint x="366" y="50" as="sourcePoint" />
            <mxPoint x="356" y="90" as="targetPoint" />
            <Array as="points">
              <mxPoint x="266" y="50" />
            </Array>
          </mxGeometry>
        </mxCell>
        <mxCell id="rwNBKkzbjSN3YOQV43_N-24" value="" style="edgeStyle=orthogonalEdgeStyle;rounded=0;orthogonalLoop=1;jettySize=auto;html=1;endArrow=none;endFill=0;startArrow=none;startFill=0;exitX=0.5;exitY=1;exitDx=0;exitDy=0;" edge="1" parent="1" source="rwNBKkzbjSN3YOQV43_N-10">
          <mxGeometry relative="1" as="geometry">
            <mxPoint x="562" y="-10" as="sourcePoint" />
            <mxPoint x="356" y="50" as="targetPoint" />
            <Array as="points">
              <mxPoint x="392" y="50" />
            </Array>
          </mxGeometry>
        </mxCell>
        <mxCell id="rwNBKkzbjSN3YOQV43_N-25" value="TA" style="whiteSpace=wrap;html=1;fontSize=17;rounded=0;" vertex="1" parent="1">
          <mxGeometry x="206" y="80" width="120" height="60" as="geometry" />
        </mxCell>
        <mxCell id="rwNBKkzbjSN3YOQV43_N-26" value="Quota" style="ellipse;whiteSpace=wrap;html=1;fontSize=15;fontStyle=0" vertex="1" parent="1">
          <mxGeometry x="116" y="195" width="120" height="80" as="geometry" />
        </mxCell>
        <mxCell id="rwNBKkzbjSN3YOQV43_N-27" value="" style="endArrow=none;html=1;rounded=0;exitX=0.5;exitY=0;exitDx=0;exitDy=0;entryX=0.5;entryY=1;entryDx=0;entryDy=0;fontSize=15;fontStyle=0" edge="1" parent="1" source="rwNBKkzbjSN3YOQV43_N-26" target="rwNBKkzbjSN3YOQV43_N-25">
          <mxGeometry width="50" height="50" relative="1" as="geometry">
            <mxPoint x="265.69000000000005" y="195" as="sourcePoint" />
            <mxPoint x="265.69000000000005" y="140" as="targetPoint" />
          </mxGeometry>
        </mxCell>
        <mxCell id="rwNBKkzbjSN3YOQV43_N-28" value="Office Room" style="ellipse;whiteSpace=wrap;html=1;fontSize=15;fontStyle=0" vertex="1" parent="1">
          <mxGeometry x="264" y="195" width="120" height="80" as="geometry" />
        </mxCell>
        <mxCell id="rwNBKkzbjSN3YOQV43_N-29" value="" style="endArrow=none;html=1;rounded=0;exitX=0.5;exitY=0;exitDx=0;exitDy=0;entryX=0.5;entryY=1;entryDx=0;entryDy=0;fontSize=15;fontStyle=0" edge="1" parent="1" source="rwNBKkzbjSN3YOQV43_N-28" target="rwNBKkzbjSN3YOQV43_N-25">
          <mxGeometry width="50" height="50" relative="1" as="geometry">
            <mxPoint x="413.69000000000005" y="195" as="sourcePoint" />
            <mxPoint x="266" y="135" as="targetPoint" />
          </mxGeometry>
        </mxCell>
        <mxCell id="rwNBKkzbjSN3YOQV43_N-31" value="Room Services Team" style="whiteSpace=wrap;html=1;fontSize=17;rounded=0;" vertex="1" parent="1">
          <mxGeometry x="764" y="-80" width="120" height="60" as="geometry" />
        </mxCell>
        <mxCell id="rwNBKkzbjSN3YOQV43_N-35" value="" style="edgeStyle=orthogonalEdgeStyle;rounded=0;orthogonalLoop=1;jettySize=auto;html=1;endArrow=none;endFill=0;startArrow=halfCircle;startFill=0;entryX=0.5;entryY=0;entryDx=0;entryDy=0;" edge="1" parent="1" target="rwNBKkzbjSN3YOQV43_N-37">
          <mxGeometry relative="1" as="geometry">
            <mxPoint x="446" y="-40" as="sourcePoint" />
            <mxPoint x="756" as="targetPoint" />
            <Array as="points">
              <mxPoint x="666" y="-40" />
            </Array>
          </mxGeometry>
        </mxCell>
        <mxCell id="rwNBKkzbjSN3YOQV43_N-37" value="Cleaning Staff" style="whiteSpace=wrap;html=1;fontSize=17;rounded=0;" vertex="1" parent="1">
          <mxGeometry x="606" y="-10" width="120" height="60" as="geometry" />
        </mxCell>
        <mxCell id="rwNBKkzbjSN3YOQV43_N-40" value="" style="edgeStyle=orthogonalEdgeStyle;rounded=0;orthogonalLoop=1;jettySize=auto;html=1;endArrow=none;endFill=0;startArrow=halfCircle;startFill=0;entryX=0.5;entryY=0;entryDx=0;entryDy=0;" edge="1" parent="1" target="rwNBKkzbjSN3YOQV43_N-42">
          <mxGeometry relative="1" as="geometry">
            <mxPoint x="426" y="50" as="sourcePoint" />
            <mxPoint x="472" y="79.99999999999977" as="targetPoint" />
            <Array as="points">
              <mxPoint x="472" y="50" />
              <mxPoint x="472" y="81" />
            </Array>
          </mxGeometry>
        </mxCell>
        <mxCell id="rwNBKkzbjSN3YOQV43_N-42" value="Registrar" style="whiteSpace=wrap;html=1;fontSize=17;rounded=0;" vertex="1" parent="1">
          <mxGeometry x="414" y="81" width="120" height="60" as="geometry" />
        </mxCell>
        <mxCell id="rwNBKkzbjSN3YOQV43_N-47" value="" style="endArrow=none;html=1;rounded=0;entryX=0;entryY=0.5;entryDx=0;entryDy=0;" edge="1" parent="1" target="rwNBKkzbjSN3YOQV43_N-10">
          <mxGeometry width="50" height="50" relative="1" as="geometry">
            <mxPoint x="226" y="-120" as="sourcePoint" />
            <mxPoint x="344" y="-130" as="targetPoint" />
          </mxGeometry>
        </mxCell>
        <mxCell id="rwNBKkzbjSN3YOQV43_N-48" value="" style="endArrow=none;html=1;rounded=0;" edge="1" parent="1">
          <mxGeometry width="50" height="50" relative="1" as="geometry">
            <mxPoint x="322" y="-40" as="sourcePoint" />
            <mxPoint x="392" y="-40" as="targetPoint" />
          </mxGeometry>
        </mxCell>
        <mxCell id="rwNBKkzbjSN3YOQV43_N-49" value="" style="endArrow=none;html=1;rounded=0;" edge="1" parent="1">
          <mxGeometry width="50" height="50" relative="1" as="geometry">
            <mxPoint x="384" y="50" as="sourcePoint" />
            <mxPoint x="446" y="50" as="targetPoint" />
          </mxGeometry>
        </mxCell>
        <mxCell id="rwNBKkzbjSN3YOQV43_N-50" value="" style="endArrow=none;html=1;rounded=0;" edge="1" parent="1">
          <mxGeometry width="50" height="50" relative="1" as="geometry">
            <mxPoint x="386" y="-40" as="sourcePoint" />
            <mxPoint x="461" y="-40" as="targetPoint" />
          </mxGeometry>
        </mxCell>
        <mxCell id="rwNBKkzbjSN3YOQV43_N-51" value="" style="edgeStyle=orthogonalEdgeStyle;rounded=0;orthogonalLoop=1;jettySize=auto;html=1;endArrow=none;endFill=0;startArrow=halfCircle;startFill=0;entryX=0.5;entryY=0;entryDx=0;entryDy=0;" edge="1" parent="1" target="rwNBKkzbjSN3YOQV43_N-31">
          <mxGeometry relative="1" as="geometry">
            <mxPoint x="505.9988888888888" y="-120" as="sourcePoint" />
            <mxPoint x="826" y="-90" as="targetPoint" />
            <Array as="points">
              <mxPoint x="824" y="-120" />
            </Array>
          </mxGeometry>
        </mxCell>
        <mxCell id="rwNBKkzbjSN3YOQV43_N-52" value="" style="endArrow=none;html=1;rounded=0;exitX=1;exitY=0.5;exitDx=0;exitDy=0;" edge="1" parent="1" source="rwNBKkzbjSN3YOQV43_N-10">
          <mxGeometry width="50" height="50" relative="1" as="geometry">
            <mxPoint x="414" y="-119.56" as="sourcePoint" />
            <mxPoint x="516" y="-120" as="targetPoint" />
          </mxGeometry>
        </mxCell>
        <mxCell id="rwNBKkzbjSN3YOQV43_N-53" value="Clinic_ Booking_ Request" style="rounded=0;whiteSpace=wrap;html=1;fontStyle=1;fontSize=17;" vertex="1" parent="1">
          <mxGeometry x="1052" y="1430" width="120" height="60" as="geometry" />
        </mxCell>
        <mxCell id="rwNBKkzbjSN3YOQV43_N-55" value="Reason" style="ellipse;whiteSpace=wrap;html=1;rounded=1;fontSize=15;fontStyle=0" vertex="1" parent="1">
          <mxGeometry x="1308" y="1270" width="130" height="80" as="geometry" />
        </mxCell>
        <mxCell id="rwNBKkzbjSN3YOQV43_N-56" value="Time Slot" style="ellipse;whiteSpace=wrap;html=1;rounded=1;fontSize=15;fontStyle=0" vertex="1" parent="1">
          <mxGeometry x="1250" y="1520" width="130" height="80" as="geometry" />
        </mxCell>
        <mxCell id="rwNBKkzbjSN3YOQV43_N-57" value="Duration" style="ellipse;whiteSpace=wrap;html=1;rounded=1;fontSize=15;fontStyle=0" vertex="1" parent="1">
          <mxGeometry x="1042" y="1230" width="130" height="80" as="geometry" />
        </mxCell>
        <mxCell id="rwNBKkzbjSN3YOQV43_N-59" value="" style="endArrow=none;html=1;rounded=0;exitX=0;exitY=1;exitDx=0;exitDy=0;entryX=1;entryY=0;entryDx=0;entryDy=0;fontSize=15;fontStyle=0" edge="1" parent="1" source="rwNBKkzbjSN3YOQV43_N-55" target="rwNBKkzbjSN3YOQV43_N-53">
          <mxGeometry width="50" height="50" relative="1" as="geometry">
            <mxPoint x="997" y="1380" as="sourcePoint" />
            <mxPoint x="997" y="1490" as="targetPoint" />
          </mxGeometry>
        </mxCell>
        <mxCell id="rwNBKkzbjSN3YOQV43_N-60" value="" style="endArrow=none;html=1;rounded=0;exitX=0.5;exitY=0;exitDx=0;exitDy=0;entryX=0.5;entryY=1;entryDx=0;entryDy=0;fontSize=15;fontStyle=0" edge="1" parent="1" source="rwNBKkzbjSN3YOQV43_N-53" target="rwNBKkzbjSN3YOQV43_N-57">
          <mxGeometry width="50" height="50" relative="1" as="geometry">
            <mxPoint x="1111.38" y="1490" as="sourcePoint" />
            <mxPoint x="1111.38" y="1580" as="targetPoint" />
          </mxGeometry>
        </mxCell>
        <mxCell id="rwNBKkzbjSN3YOQV43_N-61" value="" style="endArrow=none;html=1;rounded=0;exitX=1;exitY=1;exitDx=0;exitDy=0;entryX=0;entryY=0.5;entryDx=0;entryDy=0;fontSize=15;fontStyle=0" edge="1" parent="1" source="rwNBKkzbjSN3YOQV43_N-53" target="rwNBKkzbjSN3YOQV43_N-56">
          <mxGeometry width="50" height="50" relative="1" as="geometry">
            <mxPoint x="1172" y="1460" as="sourcePoint" />
            <mxPoint x="1247" y="1460" as="targetPoint" />
          </mxGeometry>
        </mxCell>
        <mxCell id="rwNBKkzbjSN3YOQV43_N-62" value="Day" style="ellipse;whiteSpace=wrap;html=1;rounded=1;fontSize=15;fontStyle=0" vertex="1" parent="1">
          <mxGeometry x="1468" y="1520" width="130" height="80" as="geometry" />
        </mxCell>
        <mxCell id="rwNBKkzbjSN3YOQV43_N-63" value="" style="endArrow=none;html=1;rounded=0;entryX=1;entryY=0.5;entryDx=0;entryDy=0;exitX=0;exitY=0.5;exitDx=0;exitDy=0;fontSize=15;fontStyle=0" edge="1" parent="1" source="rwNBKkzbjSN3YOQV43_N-62" target="rwNBKkzbjSN3YOQV43_N-56">
          <mxGeometry width="50" height="50" relative="1" as="geometry">
            <mxPoint x="1473" y="1447.7200000000003" as="sourcePoint" />
            <mxPoint x="1362" y="1433" as="targetPoint" />
          </mxGeometry>
        </mxCell>
        <mxCell id="rwNBKkzbjSN3YOQV43_N-64" value="Hour" style="ellipse;whiteSpace=wrap;html=1;rounded=1;fontSize=15;fontStyle=0" vertex="1" parent="1">
          <mxGeometry x="1250" y="1650" width="130" height="80" as="geometry" />
        </mxCell>
        <mxCell id="rwNBKkzbjSN3YOQV43_N-65" value="" style="endArrow=none;html=1;rounded=0;entryX=0.5;entryY=1;entryDx=0;entryDy=0;exitX=0.5;exitY=0;exitDx=0;exitDy=0;fontSize=15;fontStyle=0" edge="1" parent="1" source="rwNBKkzbjSN3YOQV43_N-64" target="rwNBKkzbjSN3YOQV43_N-56">
          <mxGeometry width="50" height="50" relative="1" as="geometry">
            <mxPoint x="1474" y="1460.5" as="sourcePoint" />
            <mxPoint x="1362" y="1490" as="targetPoint" />
          </mxGeometry>
        </mxCell>
        <mxCell id="rwNBKkzbjSN3YOQV43_N-80" value="Course_ID" style="ellipse;whiteSpace=wrap;html=1;rounded=1;fontSize=15;fontStyle=0" vertex="1" parent="1">
          <mxGeometry x="912" y="1300" width="130" height="80" as="geometry" />
        </mxCell>
        <mxCell id="rwNBKkzbjSN3YOQV43_N-81" value="" style="endArrow=none;html=1;rounded=0;exitX=0;exitY=0;exitDx=0;exitDy=0;entryX=1;entryY=1;entryDx=0;entryDy=0;fontSize=15;fontStyle=0" edge="1" parent="1" source="rwNBKkzbjSN3YOQV43_N-53" target="rwNBKkzbjSN3YOQV43_N-80">
          <mxGeometry width="50" height="50" relative="1" as="geometry">
            <mxPoint x="1052" y="1535" as="sourcePoint" />
            <mxPoint x="1111.38" y="1670" as="targetPoint" />
          </mxGeometry>
        </mxCell>
        <mxCell id="rwNBKkzbjSN3YOQV43_N-82" value="Room_ID" style="ellipse;whiteSpace=wrap;html=1;rounded=1;fontSize=15;fontStyle=0" vertex="1" parent="1">
          <mxGeometry x="1340" y="1420" width="130" height="80" as="geometry" />
        </mxCell>
        <mxCell id="rwNBKkzbjSN3YOQV43_N-83" value="" style="endArrow=none;html=1;rounded=0;exitX=1;exitY=0.5;exitDx=0;exitDy=0;entryX=0;entryY=0.5;entryDx=0;entryDy=0;fontSize=15;fontStyle=0" edge="1" parent="1" source="rwNBKkzbjSN3YOQV43_N-53" target="rwNBKkzbjSN3YOQV43_N-82">
          <mxGeometry width="50" height="50" relative="1" as="geometry">
            <mxPoint x="1246.25" y="1425" as="sourcePoint" />
            <mxPoint x="1331.75" y="1347.5" as="targetPoint" />
          </mxGeometry>
        </mxCell>
        <mxCell id="rwNBKkzbjSN3YOQV43_N-86" value="Requests/ Reports" style="rounded=0;whiteSpace=wrap;html=1;fontStyle=1;fontSize=17;" vertex="1" parent="1">
          <mxGeometry x="244" y="1710" width="120" height="60" as="geometry" />
        </mxCell>
        <mxCell id="rwNBKkzbjSN3YOQV43_N-87" value="Time of Requesting/ Reporting" style="ellipse;whiteSpace=wrap;html=1;rounded=1;fontSize=15;fontStyle=0" vertex="1" parent="1">
          <mxGeometry x="-11" y="1700" width="130" height="80" as="geometry" />
        </mxCell>
        <mxCell id="rwNBKkzbjSN3YOQV43_N-88" value="" style="endArrow=none;html=1;rounded=0;exitX=0;exitY=0.5;exitDx=0;exitDy=0;entryX=1;entryY=0.5;entryDx=0;entryDy=0;fontSize=15;fontStyle=0" edge="1" parent="1" source="rwNBKkzbjSN3YOQV43_N-86" target="rwNBKkzbjSN3YOQV43_N-87">
          <mxGeometry width="50" height="50" relative="1" as="geometry">
            <mxPoint x="275" y="1770" as="sourcePoint" />
            <mxPoint x="365.5" y="1800" as="targetPoint" />
          </mxGeometry>
        </mxCell>
        <mxCell id="rwNBKkzbjSN3YOQV43_N-89" value="Day" style="ellipse;whiteSpace=wrap;html=1;rounded=1;fontSize=15;fontStyle=0" vertex="1" parent="1">
          <mxGeometry x="-11" y="1850" width="130" height="80" as="geometry" />
        </mxCell>
        <mxCell id="rwNBKkzbjSN3YOQV43_N-90" value="" style="endArrow=none;html=1;rounded=0;entryX=0.5;entryY=1;entryDx=0;entryDy=0;exitX=0.5;exitY=0;exitDx=0;exitDy=0;fontSize=15;fontStyle=0" edge="1" parent="1" source="rwNBKkzbjSN3YOQV43_N-89" target="rwNBKkzbjSN3YOQV43_N-87">
          <mxGeometry width="50" height="50" relative="1" as="geometry">
            <mxPoint x="468" y="1842.7200000000003" as="sourcePoint" />
            <mxPoint x="357" y="1828" as="targetPoint" />
          </mxGeometry>
        </mxCell>
        <mxCell id="rwNBKkzbjSN3YOQV43_N-91" value="Hour" style="ellipse;whiteSpace=wrap;html=1;rounded=1;fontSize=15;fontStyle=0" vertex="1" parent="1">
          <mxGeometry x="-210" y="1800" width="130" height="77.5" as="geometry" />
        </mxCell>
        <mxCell id="rwNBKkzbjSN3YOQV43_N-92" value="" style="endArrow=none;html=1;rounded=0;entryX=0;entryY=1;entryDx=0;entryDy=0;exitX=1;exitY=0;exitDx=0;exitDy=0;fontSize=15;fontStyle=0" edge="1" parent="1" source="rwNBKkzbjSN3YOQV43_N-91" target="rwNBKkzbjSN3YOQV43_N-87">
          <mxGeometry width="50" height="50" relative="1" as="geometry">
            <mxPoint x="469" y="1855.5" as="sourcePoint" />
            <mxPoint x="357" y="1885" as="targetPoint" />
          </mxGeometry>
        </mxCell>
        <mxCell id="rwNBKkzbjSN3YOQV43_N-93" value="Time of Handling" style="ellipse;whiteSpace=wrap;html=1;rounded=1;fontSize=15;fontStyle=0" vertex="1" parent="1">
          <mxGeometry x="492" y="1700" width="130" height="80" as="geometry" />
        </mxCell>
        <mxCell id="rwNBKkzbjSN3YOQV43_N-94" value="" style="endArrow=none;html=1;rounded=0;exitX=1;exitY=0.5;exitDx=0;exitDy=0;entryX=0;entryY=0.5;entryDx=0;entryDy=0;fontSize=15;fontStyle=0" edge="1" parent="1" source="rwNBKkzbjSN3YOQV43_N-86" target="rwNBKkzbjSN3YOQV43_N-93">
          <mxGeometry width="50" height="50" relative="1" as="geometry">
            <mxPoint x="335" y="1770" as="sourcePoint" />
            <mxPoint x="671.5" y="1940" as="targetPoint" />
          </mxGeometry>
        </mxCell>
        <mxCell id="rwNBKkzbjSN3YOQV43_N-95" value="Hour" style="ellipse;whiteSpace=wrap;html=1;rounded=1;fontSize=15;fontStyle=0" vertex="1" parent="1">
          <mxGeometry x="708" y="1800" width="130" height="80" as="geometry" />
        </mxCell>
        <mxCell id="rwNBKkzbjSN3YOQV43_N-96" value="" style="endArrow=none;html=1;rounded=0;entryX=1;entryY=1;entryDx=0;entryDy=0;exitX=0;exitY=0;exitDx=0;exitDy=0;fontSize=15;fontStyle=0" edge="1" parent="1" source="rwNBKkzbjSN3YOQV43_N-95" target="rwNBKkzbjSN3YOQV43_N-93">
          <mxGeometry width="50" height="50" relative="1" as="geometry">
            <mxPoint x="774" y="1982.7200000000003" as="sourcePoint" />
            <mxPoint x="663" y="1968" as="targetPoint" />
          </mxGeometry>
        </mxCell>
        <mxCell id="rwNBKkzbjSN3YOQV43_N-97" value="Day" style="ellipse;whiteSpace=wrap;html=1;rounded=1;fontSize=15;fontStyle=0" vertex="1" parent="1">
          <mxGeometry x="492" y="1852.5" width="130" height="77.5" as="geometry" />
        </mxCell>
        <mxCell id="rwNBKkzbjSN3YOQV43_N-98" value="" style="endArrow=none;html=1;rounded=0;entryX=0.5;entryY=1;entryDx=0;entryDy=0;exitX=0.5;exitY=0;exitDx=0;exitDy=0;fontSize=15;fontStyle=0" edge="1" parent="1" source="rwNBKkzbjSN3YOQV43_N-97" target="rwNBKkzbjSN3YOQV43_N-93">
          <mxGeometry width="50" height="50" relative="1" as="geometry">
            <mxPoint x="775" y="1995.5" as="sourcePoint" />
            <mxPoint x="663" y="2025" as="targetPoint" />
          </mxGeometry>
        </mxCell>
        <mxCell id="rwNBKkzbjSN3YOQV43_N-99" value="Condition" style="ellipse;whiteSpace=wrap;html=1;rounded=1;fontSize=15;fontStyle=0" vertex="1" parent="1">
          <mxGeometry x="384" y="1790" width="130" height="80" as="geometry" />
        </mxCell>
        <mxCell id="rwNBKkzbjSN3YOQV43_N-100" value="" style="endArrow=none;html=1;rounded=0;exitX=1;exitY=1;exitDx=0;exitDy=0;entryX=0;entryY=0;entryDx=0;entryDy=0;fontSize=15;fontStyle=0" edge="1" parent="1" source="rwNBKkzbjSN3YOQV43_N-86" target="rwNBKkzbjSN3YOQV43_N-99">
          <mxGeometry width="50" height="50" relative="1" as="geometry">
            <mxPoint x="380" y="1832.5" as="sourcePoint" />
            <mxPoint x="471.5" y="1862" as="targetPoint" />
          </mxGeometry>
        </mxCell>
        <mxCell id="rwNBKkzbjSN3YOQV43_N-103" value="Report/&amp;nbsp; &amp;nbsp;Requester ID" style="ellipse;whiteSpace=wrap;html=1;rounded=1;fontSize=15;fontStyle=0" vertex="1" parent="1">
          <mxGeometry x="100" y="1790" width="130" height="80" as="geometry" />
        </mxCell>
        <mxCell id="rwNBKkzbjSN3YOQV43_N-104" value="" style="endArrow=none;html=1;rounded=0;exitX=0;exitY=1;exitDx=0;exitDy=0;entryX=1;entryY=0;entryDx=0;entryDy=0;fontSize=15;fontStyle=0" edge="1" parent="1" target="rwNBKkzbjSN3YOQV43_N-103" source="rwNBKkzbjSN3YOQV43_N-86">
          <mxGeometry width="50" height="50" relative="1" as="geometry">
            <mxPoint x="223" y="1752.5" as="sourcePoint" />
            <mxPoint x="177.5" y="1844.5" as="targetPoint" />
          </mxGeometry>
        </mxCell>
        <mxCell id="rwNBKkzbjSN3YOQV43_N-105" value="&lt;u&gt;ID&lt;/u&gt;" style="ellipse;whiteSpace=wrap;html=1;rounded=1;fontSize=15;fontStyle=0" vertex="1" parent="1">
          <mxGeometry x="239" y="1880" width="130" height="80" as="geometry" />
        </mxCell>
        <mxCell id="rwNBKkzbjSN3YOQV43_N-106" value="" style="endArrow=none;html=1;rounded=0;exitX=0.5;exitY=1;exitDx=0;exitDy=0;entryX=0.5;entryY=0;entryDx=0;entryDy=0;fontSize=15;fontStyle=0" edge="1" parent="1" target="rwNBKkzbjSN3YOQV43_N-105" source="rwNBKkzbjSN3YOQV43_N-86">
          <mxGeometry width="50" height="50" relative="1" as="geometry">
            <mxPoint x="440" y="1900" as="sourcePoint" />
            <mxPoint x="373.5" y="1974.5" as="targetPoint" />
          </mxGeometry>
        </mxCell>
        <mxCell id="rwNBKkzbjSN3YOQV43_N-113" value="" style="edgeStyle=orthogonalEdgeStyle;rounded=0;orthogonalLoop=1;jettySize=auto;html=1;endArrow=none;startFill=0;entryX=0.5;entryY=1;entryDx=0;entryDy=0;exitX=0.5;exitY=0;exitDx=0;exitDy=0;" edge="1" parent="1" target="rwNBKkzbjSN3YOQV43_N-114" source="rwNBKkzbjSN3YOQV43_N-86">
          <mxGeometry relative="1" as="geometry">
            <mxPoint x="297" y="1500" as="sourcePoint" />
          </mxGeometry>
        </mxCell>
        <mxCell id="rwNBKkzbjSN3YOQV43_N-115" value="" style="edgeStyle=orthogonalEdgeStyle;rounded=0;orthogonalLoop=1;jettySize=auto;html=1;endArrow=none;endFill=0;startArrow=halfCircle;startFill=0;entryX=0.5;entryY=1;entryDx=0;entryDy=0;" edge="1" parent="1" target="rwNBKkzbjSN3YOQV43_N-53">
          <mxGeometry relative="1" as="geometry">
            <mxPoint x="417.9988888888888" y="1590" as="sourcePoint" />
            <mxPoint x="1130" y="1630" as="targetPoint" />
            <Array as="points">
              <mxPoint x="1112" y="1590" />
            </Array>
          </mxGeometry>
        </mxCell>
        <mxCell id="rwNBKkzbjSN3YOQV43_N-116" value="" style="endArrow=none;html=1;rounded=0;exitX=1;exitY=0.5;exitDx=0;exitDy=0;" edge="1" parent="1">
          <mxGeometry width="50" height="50" relative="1" as="geometry">
            <mxPoint x="326" y="1590" as="sourcePoint" />
            <mxPoint x="428" y="1590" as="targetPoint" />
          </mxGeometry>
        </mxCell>
        <mxCell id="rwNBKkzbjSN3YOQV43_N-117" value="" style="edgeStyle=orthogonalEdgeStyle;rounded=0;orthogonalLoop=1;jettySize=auto;html=1;endArrow=none;endFill=0;startArrow=halfCircle;startFill=0;entryX=0.5;entryY=1;entryDx=0;entryDy=0;" edge="1" parent="1" target="I0q6RKd7OuiKcTzyVqVU-82">
          <mxGeometry relative="1" as="geometry">
            <mxPoint x="379.9988888888888" y="1480" as="sourcePoint" />
            <mxPoint x="770" y="1380" as="targetPoint" />
            <Array as="points">
              <mxPoint x="776" y="1480" />
            </Array>
          </mxGeometry>
        </mxCell>
        <mxCell id="rwNBKkzbjSN3YOQV43_N-118" value="" style="endArrow=none;html=1;rounded=0;exitX=0.5;exitY=0;exitDx=0;exitDy=0;" edge="1" parent="1" source="rwNBKkzbjSN3YOQV43_N-114">
          <mxGeometry width="50" height="50" relative="1" as="geometry">
            <mxPoint x="30" y="1410" as="sourcePoint" />
            <mxPoint x="303" y="1240" as="targetPoint" />
          </mxGeometry>
        </mxCell>
        <mxCell id="rwNBKkzbjSN3YOQV43_N-119" value="" style="endArrow=none;html=1;rounded=0;exitX=1;exitY=0.5;exitDx=0;exitDy=0;" edge="1" parent="1">
          <mxGeometry width="50" height="50" relative="1" as="geometry">
            <mxPoint x="303" y="1480" as="sourcePoint" />
            <mxPoint x="405" y="1480" as="targetPoint" />
          </mxGeometry>
        </mxCell>
        <mxCell id="rwNBKkzbjSN3YOQV43_N-120" value="" style="edgeStyle=orthogonalEdgeStyle;rounded=0;orthogonalLoop=1;jettySize=auto;html=1;endArrow=none;endFill=0;startArrow=halfCircle;startFill=0;" edge="1" parent="1">
          <mxGeometry relative="1" as="geometry">
            <mxPoint x="379.9988888888888" y="1240" as="sourcePoint" />
            <mxPoint x="480" y="1150" as="targetPoint" />
            <Array as="points">
              <mxPoint x="480" y="1240" />
              <mxPoint x="480" y="1140" />
            </Array>
          </mxGeometry>
        </mxCell>
        <mxCell id="rwNBKkzbjSN3YOQV43_N-121" value="" style="endArrow=none;html=1;rounded=0;exitX=1;exitY=0.5;exitDx=0;exitDy=0;" edge="1" parent="1">
          <mxGeometry width="50" height="50" relative="1" as="geometry">
            <mxPoint x="303" y="1240" as="sourcePoint" />
            <mxPoint x="405" y="1240" as="targetPoint" />
          </mxGeometry>
        </mxCell>
        <mxCell id="rwNBKkzbjSN3YOQV43_N-122" value="" style="edgeStyle=orthogonalEdgeStyle;rounded=0;orthogonalLoop=1;jettySize=auto;html=1;endArrow=none;endFill=0;startArrow=halfCircle;startFill=0;entryX=0.5;entryY=1;entryDx=0;entryDy=0;" edge="1" parent="1" target="I0q6RKd7OuiKcTzyVqVU-241">
          <mxGeometry relative="1" as="geometry">
            <mxPoint x="220" y="1240" as="sourcePoint" />
            <mxPoint x="-20" y="1240" as="targetPoint" />
            <Array as="points">
              <mxPoint x="66" y="1240" />
            </Array>
          </mxGeometry>
        </mxCell>
        <mxCell id="rwNBKkzbjSN3YOQV43_N-123" value="" style="endArrow=none;html=1;rounded=0;exitX=1;exitY=0.5;exitDx=0;exitDy=0;" edge="1" parent="1">
          <mxGeometry width="50" height="50" relative="1" as="geometry">
            <mxPoint x="201" y="1240" as="sourcePoint" />
            <mxPoint x="303" y="1240" as="targetPoint" />
          </mxGeometry>
        </mxCell>
        <mxCell id="rwNBKkzbjSN3YOQV43_N-124" value="" style="edgeStyle=orthogonalEdgeStyle;rounded=0;orthogonalLoop=1;jettySize=auto;html=1;endArrow=none;endFill=0;startArrow=halfCircle;startFill=0;entryX=0.5;entryY=1;entryDx=0;entryDy=0;" edge="1" parent="1" target="I0q6RKd7OuiKcTzyVqVU-145">
          <mxGeometry relative="1" as="geometry">
            <mxPoint x="221.5" y="1360" as="sourcePoint" />
            <mxPoint x="-120" y="1240" as="targetPoint" />
            <Array as="points">
              <mxPoint x="-120" y="1360" />
              <mxPoint x="-120" y="1240" />
            </Array>
          </mxGeometry>
        </mxCell>
        <mxCell id="rwNBKkzbjSN3YOQV43_N-125" value="" style="endArrow=none;html=1;rounded=0;exitX=1;exitY=0.5;exitDx=0;exitDy=0;" edge="1" parent="1">
          <mxGeometry width="50" height="50" relative="1" as="geometry">
            <mxPoint x="202.5" y="1360" as="sourcePoint" />
            <mxPoint x="304.5" y="1360" as="targetPoint" />
          </mxGeometry>
        </mxCell>
        <mxCell id="rwNBKkzbjSN3YOQV43_N-126" value="" style="edgeStyle=orthogonalEdgeStyle;rounded=0;orthogonalLoop=1;jettySize=auto;html=1;endArrow=none;endFill=0;startArrow=halfCircle;startFill=0;" edge="1" parent="1">
          <mxGeometry relative="1" as="geometry">
            <mxPoint x="226.5" y="1480" as="sourcePoint" />
            <mxPoint x="-304" y="1355" as="targetPoint" />
            <Array as="points">
              <mxPoint x="-304" y="1480" />
              <mxPoint x="-304" y="1355" />
            </Array>
          </mxGeometry>
        </mxCell>
        <mxCell id="rwNBKkzbjSN3YOQV43_N-127" value="" style="endArrow=none;html=1;rounded=0;exitX=1;exitY=0.5;exitDx=0;exitDy=0;" edge="1" parent="1">
          <mxGeometry width="50" height="50" relative="1" as="geometry">
            <mxPoint x="207.5" y="1480" as="sourcePoint" />
            <mxPoint x="309.5" y="1480" as="targetPoint" />
          </mxGeometry>
        </mxCell>
        <mxCell id="rwNBKkzbjSN3YOQV43_N-129" value="" style="edgeStyle=orthogonalEdgeStyle;rounded=0;orthogonalLoop=1;jettySize=auto;html=1;endArrow=none;endFill=0;startArrow=halfCircle;startFill=0;entryX=0.5;entryY=1;entryDx=0;entryDy=0;" edge="1" parent="1" target="I0q6RKd7OuiKcTzyVqVU-166">
          <mxGeometry relative="1" as="geometry">
            <mxPoint x="195.5" y="1590" as="sourcePoint" />
            <mxPoint x="-335" y="1465" as="targetPoint" />
            <Array as="points">
              <mxPoint x="-480" y="1590" />
            </Array>
          </mxGeometry>
        </mxCell>
        <mxCell id="rwNBKkzbjSN3YOQV43_N-130" value="" style="endArrow=none;html=1;rounded=0;entryX=0;entryY=0.5;entryDx=0;entryDy=0;" edge="1" parent="1" target="rwNBKkzbjSN3YOQV43_N-114">
          <mxGeometry width="50" height="50" relative="1" as="geometry">
            <mxPoint x="183" y="1590" as="sourcePoint" />
            <mxPoint x="285" y="1588.33" as="targetPoint" />
          </mxGeometry>
        </mxCell>
        <mxCell id="rwNBKkzbjSN3YOQV43_N-114" value="D" style="ellipse;whiteSpace=wrap;html=1;fontSize=17;rounded=0;" vertex="1" parent="1">
          <mxGeometry x="281" y="1570" width="44" height="40" as="geometry" />
        </mxCell>
      </root>
    </mxGraphModel>
  </diagram>
</mxfile>
